<?xml version="1.0" encoding="UTF-8"?>
<svg width="1200" height="400" viewBox="0 0 1200 400" xmlns="http://www.w3.org/2000/svg">
  <!-- Arka plan gradyan -->
  <defs>
    <linearGradient id="bg-gradient" x1="0%" y1="0%" x2="100%" y2="100%">
      <stop offset="0%" style="stop-color:#0f2027;stop-opacity:1" />
      <stop offset="50%" style="stop-color:#203a43;stop-opacity:1" />
      <stop offset="100%" style="stop-color:#2c5364;stop-opacity:1" />
    </linearGradient>
  </defs>
  
  <!-- Arka plan -->
  <rect width="100%" height="100%" fill="url(#bg-gradient)" />
  
  <!-- Sağ üst köşede dalgalı şekiller -->
  <path d="M900,0 Q950,50 1000,25 T1100,50 T1200,25 L1200,0 Z" fill="#1976d2" opacity="0.3" />
  <path d="M950,0 Q1000,60 1050,30 T1150,60 T1250,30 L1200,0 Z" fill="#64b5f6" opacity="0.2" />
  
  <!-- Sol alt köşede dalgalı şekiller -->
  <path d="M0,350 Q50,320 100,340 T200,320 T300,340 L0,400 Z" fill="#1976d2" opacity="0.3" />
  <path d="M0,380 Q70,350 140,370 T280,350 T350,370 L0,400 Z" fill="#64b5f6" opacity="0.2" />
  
  <!-- Merkez bölgede ufak geometrik şekiller -->
  <g opacity="0.1">
    <!-- Daireler -->
    <circle cx="300" cy="100" r="20" fill="#ffffff" />
    <circle cx="900" cy="300" r="15" fill="#ffffff" />
    <circle cx="700" cy="180" r="10" fill="#ffffff" />
    <circle cx="500" cy="250" r="12" fill="#ffffff" />
    <circle cx="400" cy="330" r="8" fill="#ffffff" />
    <circle cx="800" cy="120" r="6" fill="#ffffff" />
    
    <!-- Üçgenler -->
    <path d="M600,150 L620,180 L580,180 Z" fill="#ffffff" />
    <path d="M350,220 L370,250 L330,250 Z" fill="#ffffff" />
    <path d="M850,230 L870,260 L830,260 Z" fill="#ffffff" />
    
    <!-- Kareler -->
    <rect x="450" y="170" width="15" height="15" fill="#ffffff" />
    <rect x="750" y="250" width="10" height="10" fill="#ffffff" />
    <rect x="250" y="290" width="12" height="12" fill="#ffffff" />
  </g>
  
  <!-- İnce bağlantı çizgileri -->
  <g stroke="#ffffff" stroke-width="0.5" opacity="0.15">
    <line x1="300" y1="100" x2="500" y2="250" />
    <line x1="500" y1="250" x2="700" y2="180" />
    <line x1="700" y1="180" x2="900" y2="300" />
    <line x1="300" y1="100" x2="600" y2="150" />
    <line x1="600" y1="150" x2="800" y2="120" />
    <line x1="350" y1="220" x2="450" y2="170" />
    <line x1="450" y1="170" x2="600" y2="150" />
    <line x1="250" y1="290" x2="400" y2="330" />
    <line x1="400" y1="330" x2="750" y2="250" />
    <line x1="750" y1="250" x2="850" y2="230" />
  </g>
</svg> 